<mxfile host="app.diagrams.net" modified="2023-07-28T06:15:32.804Z" agent="Mozilla/5.0 (X11; Linux x86_64) AppleWebKit/537.36 (KHTML, like Gecko) Chrome/115.0.0.0 Safari/537.36" etag="UOx6y8Y9MTbVEL1OeDJ5" version="21.6.5" type="github">
  <diagram name="第 1 页" id="EiAz-qFjUpqDBMEpqwvK">
    <mxGraphModel dx="794" dy="447" grid="1" gridSize="10" guides="1" tooltips="1" connect="1" arrows="1" fold="1" page="1" pageScale="1" pageWidth="827" pageHeight="1169" math="0" shadow="0">
      <root>
        <mxCell id="0" />
        <mxCell id="1" parent="0" />
        <mxCell id="wOBhlmAmb0lGOMm7ns9X-1" value="Class.forName()" style="rounded=1;whiteSpace=wrap;html=1;fillColor=#f5f5f5;fontColor=#333333;strokeColor=#666666;" vertex="1" parent="1">
          <mxGeometry x="100" y="110" width="200" height="50" as="geometry" />
        </mxCell>
        <mxCell id="wOBhlmAmb0lGOMm7ns9X-2" value="getMethod(&quot;sayhello&quot;)" style="rounded=1;whiteSpace=wrap;html=1;fillColor=#f5f5f5;fontColor=#333333;strokeColor=#666666;" vertex="1" parent="1">
          <mxGeometry x="100" y="170" width="200" height="50" as="geometry" />
        </mxCell>
        <mxCell id="wOBhlmAmb0lGOMm7ns9X-3" value="invoke" style="rounded=1;whiteSpace=wrap;html=1;fillColor=#f5f5f5;fontColor=#333333;strokeColor=#666666;" vertex="1" parent="1">
          <mxGeometry x="100" y="240" width="200" height="50" as="geometry" />
        </mxCell>
        <mxCell id="wOBhlmAmb0lGOMm7ns9X-5" value="" style="rounded=0;whiteSpace=wrap;html=1;fillColor=#fff2cc;strokeColor=#d6b656;" vertex="1" parent="1">
          <mxGeometry x="500" y="110" width="140" height="170" as="geometry" />
        </mxCell>
        <mxCell id="wOBhlmAmb0lGOMm7ns9X-6" value="person&lt;br&gt;" style="rounded=0;whiteSpace=wrap;html=1;fillColor=#dae8fc;strokeColor=#6c8ebf;" vertex="1" parent="1">
          <mxGeometry x="500" y="110" width="140" height="50" as="geometry" />
        </mxCell>
        <mxCell id="wOBhlmAmb0lGOMm7ns9X-8" value="+sayHello():void" style="rounded=0;whiteSpace=wrap;html=1;fillColor=#dae8fc;strokeColor=#6c8ebf;" vertex="1" parent="1">
          <mxGeometry x="500" y="210" width="140" height="70" as="geometry" />
        </mxCell>
        <mxCell id="wOBhlmAmb0lGOMm7ns9X-9" value="1. 实例化Class" style="text;html=1;strokeColor=none;fillColor=none;align=center;verticalAlign=middle;whiteSpace=wrap;rounded=0;" vertex="1" parent="1">
          <mxGeometry x="370" y="110" width="90" height="30" as="geometry" />
        </mxCell>
        <mxCell id="wOBhlmAmb0lGOMm7ns9X-10" value="2.找到sayhello()" style="text;html=1;strokeColor=none;fillColor=none;align=center;verticalAlign=middle;whiteSpace=wrap;rounded=0;" vertex="1" parent="1">
          <mxGeometry x="360" y="170" width="110" height="30" as="geometry" />
        </mxCell>
        <mxCell id="wOBhlmAmb0lGOMm7ns9X-11" value="3.调用方法" style="text;html=1;strokeColor=none;fillColor=none;align=center;verticalAlign=middle;whiteSpace=wrap;rounded=0;" vertex="1" parent="1">
          <mxGeometry x="385" y="250" width="60" height="30" as="geometry" />
        </mxCell>
        <mxCell id="wOBhlmAmb0lGOMm7ns9X-12" value="" style="endArrow=none;html=1;rounded=0;exitX=1;exitY=0.5;exitDx=0;exitDy=0;entryX=0;entryY=0.5;entryDx=0;entryDy=0;" edge="1" parent="1" source="wOBhlmAmb0lGOMm7ns9X-1" target="wOBhlmAmb0lGOMm7ns9X-9">
          <mxGeometry width="50" height="50" relative="1" as="geometry">
            <mxPoint x="320" y="170" as="sourcePoint" />
            <mxPoint x="370" y="120" as="targetPoint" />
          </mxGeometry>
        </mxCell>
        <mxCell id="wOBhlmAmb0lGOMm7ns9X-13" value="" style="endArrow=classic;html=1;rounded=0;entryX=0;entryY=0.5;entryDx=0;entryDy=0;endFill=1;" edge="1" parent="1" target="wOBhlmAmb0lGOMm7ns9X-6">
          <mxGeometry width="50" height="50" relative="1" as="geometry">
            <mxPoint x="450" y="130" as="sourcePoint" />
            <mxPoint x="500" y="80" as="targetPoint" />
          </mxGeometry>
        </mxCell>
        <mxCell id="wOBhlmAmb0lGOMm7ns9X-14" value="" style="endArrow=none;html=1;rounded=0;exitX=1;exitY=0.5;exitDx=0;exitDy=0;entryX=0;entryY=0.5;entryDx=0;entryDy=0;" edge="1" parent="1">
          <mxGeometry width="50" height="50" relative="1" as="geometry">
            <mxPoint x="300" y="200" as="sourcePoint" />
            <mxPoint x="370" y="190" as="targetPoint" />
          </mxGeometry>
        </mxCell>
        <mxCell id="wOBhlmAmb0lGOMm7ns9X-15" value="" style="endArrow=none;html=1;rounded=0;exitX=1;exitY=0.5;exitDx=0;exitDy=0;entryX=0;entryY=0.25;entryDx=0;entryDy=0;" edge="1" parent="1" target="wOBhlmAmb0lGOMm7ns9X-11">
          <mxGeometry width="50" height="50" relative="1" as="geometry">
            <mxPoint x="300" y="270" as="sourcePoint" />
            <mxPoint x="370" y="260" as="targetPoint" />
          </mxGeometry>
        </mxCell>
        <mxCell id="wOBhlmAmb0lGOMm7ns9X-16" value="" style="endArrow=classic;html=1;rounded=0;entryX=0;entryY=0.75;entryDx=0;entryDy=0;endFill=1;" edge="1" parent="1" target="wOBhlmAmb0lGOMm7ns9X-5">
          <mxGeometry width="50" height="50" relative="1" as="geometry">
            <mxPoint x="450" y="182.5" as="sourcePoint" />
            <mxPoint x="500" y="187.5" as="targetPoint" />
          </mxGeometry>
        </mxCell>
        <mxCell id="wOBhlmAmb0lGOMm7ns9X-17" value="" style="endArrow=classic;html=1;rounded=0;entryX=0;entryY=1;entryDx=0;entryDy=0;endFill=1;" edge="1" parent="1" target="wOBhlmAmb0lGOMm7ns9X-8">
          <mxGeometry width="50" height="50" relative="1" as="geometry">
            <mxPoint x="445" y="270" as="sourcePoint" />
            <mxPoint x="495" y="325.5" as="targetPoint" />
          </mxGeometry>
        </mxCell>
      </root>
    </mxGraphModel>
  </diagram>
</mxfile>
